<svg id="ece408f0-fe28-4dba-a795-0ee1df4bb026" data-name="Camada 1" xmlns="http://www.w3.org/2000/svg" viewBox="0 0 64 64">
  <path d="M43.3,57.5,31.9,40.7,20.2,57.5a36.1,36.1,0,0,1-4.3,5A6.8,6.8,0,0,1,11.4,64a7.2,7.2,0,0,1-5.1-1.9,5.6,5.6,0,0,1-2.1-4.3c0-1.6,1.1-4,3.2-7.1L21.7,30.3,9,13.3C6.9,10.5,5.8,8.1,5.8,6A5.5,5.5,0,0,1,7.7,1.8,7.2,7.2,0,0,1,12.8,0a6.5,6.5,0,0,1,4.6,1.6,25,25,0,0,1,4.3,4.9L31.9,20.4,41.8,6.5a26.2,26.2,0,0,1,4.3-5A6.8,6.8,0,0,1,50.6,0a7.7,7.7,0,0,1,5.2,1.8,5.3,5.3,0,0,1,2,4.2A8.1,8.1,0,0,1,57,9.4a26.2,26.2,0,0,1-2.6,3.9l-12.6,17L56,50.7c2.3,3.2,3.4,5.6,3.4,7.2a5.4,5.4,0,0,1-2.1,4.3A7.6,7.6,0,0,1,52.2,64a6.6,6.6,0,0,1-4.6-1.6A22.1,22.1,0,0,1,43.3,57.5Z" style="fill: #bf0c13"/>
</svg>
